<svg width="128" height="128" viewBox="0 0 128 128" fill="none" xmlns="http://www.w3.org/2000/svg">
  <!-- Background circle -->
  <circle cx="64" cy="64" r="60" fill="#f8f9fa" stroke="#2563eb" stroke-width="2"/>
  
  <!-- Shield shape representing protection/governance -->
  <path d="M64 20 L44 28 L44 56 C44 76 54 92 64 100 C74 92 84 76 84 56 L84 28 L64 20 Z" 
        fill="#2563eb" stroke="#1e40af" stroke-width="2"/>
  
  <!-- Data/server icon inside shield -->
  <rect x="52" y="36" width="24" height="16" rx="2" fill="white"/>
  <rect x="54" y="38" width="20" height="2" fill="#2563eb"/>
  <rect x="54" y="42" width="16" height="2" fill="#2563eb"/>
  <rect x="54" y="46" width="18" height="2" fill="#2563eb"/>
  
  <!-- Small circles representing data points -->
  <circle cx="58" cy="50" r="2" fill="#2563eb"/>
  <circle cx="66" cy="50" r="2" fill="#2563eb"/>
  <circle cx="74" cy="50" r="2" fill="#2563eb"/>
  
  <!-- Lock symbol for security -->
  <rect x="58" y="56" width="12" height="10" rx="2" fill="white" stroke="#2563eb" stroke-width="1.5"/>
  <path d="M61 56 V54 C61 52.3 62.3 51 64 51 C65.7 51 67 52.3 67 54 V56" 
        stroke="#2563eb" stroke-width="1.5" fill="none"/>
  <circle cx="64" cy="60" r="1.5" fill="#2563eb"/>
</svg>