<svg width="128" height="128" viewBox="0 0 128 128" fill="none" xmlns="http://www.w3.org/2000/svg">
  <!-- Background circle -->
  <circle cx="64" cy="64" r="60" fill="#f8f9fa" stroke="#059669" stroke-width="2"/>
  
  <!-- Central node -->
  <circle cx="64" cy="64" r="8" fill="#059669"/>
  <circle cx="64" cy="64" r="4" fill="white"/>
  
  <!-- Connected nodes -->
  <circle cx="40" cy="40" r="6" fill="#059669"/>
  <circle cx="40" cy="40" r="3" fill="white"/>
  
  <circle cx="88" cy="40" r="6" fill="#059669"/>
  <circle cx="88" cy="40" r="3" fill="white"/>
  
  <circle cx="40" cy="88" r="6" fill="#059669"/>
  <circle cx="40" cy="88" r="3" fill="white"/>
  
  <circle cx="88" cy="88" r="6" fill="#059669"/>
  <circle cx="88" cy="88" r="3" fill="white"/>
  
  <!-- Additional nodes for more complex graph -->
  <circle cx="64" cy="32" r="5" fill="#059669"/>
  <circle cx="64" cy="32" r="2.5" fill="white"/>
  
  <circle cx="64" cy="96" r="5" fill="#059669"/>
  <circle cx="64" cy="96" r="2.5" fill="white"/>
  
  <circle cx="32" cy="64" r="5" fill="#059669"/>
  <circle cx="32" cy="64" r="2.5" fill="white"/>
  
  <circle cx="96" cy="64" r="5" fill="#059669"/>
  <circle cx="96" cy="64" r="2.5" fill="white"/>
  
  <!-- Connection lines -->
  <line x1="64" y1="64" x2="40" y2="40" stroke="#059669" stroke-width="2"/>
  <line x1="64" y1="64" x2="88" y2="40" stroke="#059669" stroke-width="2"/>
  <line x1="64" y1="64" x2="40" y2="88" stroke="#059669" stroke-width="2"/>
  <line x1="64" y1="64" x2="88" y2="88" stroke="#059669" stroke-width="2"/>
  
  <line x1="64" y1="64" x2="64" y2="32" stroke="#059669" stroke-width="2"/>
  <line x1="64" y1="64" x2="64" y2="96" stroke="#059669" stroke-width="2"/>
  <line x1="64" y1="64" x2="32" y2="64" stroke="#059669" stroke-width="2"/>
  <line x1="64" y1="64" x2="96" y2="64" stroke="#059669" stroke-width="2"/>
  
  <!-- Diagonal connections -->
  <line x1="40" y1="40" x2="64" y2="32" stroke="#059669" stroke-width="1.5"/>
  <line x1="88" y1="40" x2="64" y2="32" stroke="#059669" stroke-width="1.5"/>
  <line x1="40" y1="88" x2="64" y2="96" stroke="#059669" stroke-width="1.5"/>
  <line x1="88" y1="88" x2="64" y2="96" stroke="#059669" stroke-width="1.5"/>
</svg>