<svg width="44" height="45" viewBox="0 0 44 45" fill="none" xmlns="http://www.w3.org/2000/svg">
<path d="M22 0.375C9.90234 0.375 0 10.2773 0 22.375C0 34.4727 9.90234 44.375 22 44.375C34.0977 44.375 44 34.4727 44 22.375C44 10.2773 34.0977 0.375 22 0.375ZM16.6768 33.375H11.7336V17.375H16.7336V33.375H16.6768ZM14.2052 15.2047C12.4863 15.2047 11.0938 13.8121 11.0938 12.0932C11.0938 10.3743 12.4863 8.98164 14.2052 8.98164C15.9241 8.98164 17.3166 10.3743 17.3166 12.0932C17.3166 13.8121 15.9241 15.2047 14.2052 15.2047ZM32.2664 33.375H27.3232V25.375C27.3232 23.375 27.3232 20.375 24.3232 20.375C21.3232 20.375 20.7336 22.875 20.7336 25.375V33.375H15.7904V17.375H20.7336V19.875H20.7914C21.5914 18.375 23.5914 16.875 26.5914 16.875C31.5914 16.875 32.2664 20.875 32.2664 25.375V33.375Z" fill="white"/>
</svg>